<svg width="23" height="14" viewBox="0 0 23 14" fill="none" xmlns="http://www.w3.org/2000/svg">
<path d="M0.955786 0.490723C1.71905 0.490723 2.88213 0.490723 3.53636 0.490723C3.86348 0.490723 4.1179 0.7088 4.22694 0.999569C4.55405 1.94457 5.28098 4.0163 6.11694 5.4338C7.24367 7.28745 7.97059 7.97803 8.44309 7.90534C8.91559 7.7963 8.77021 6.56053 8.77021 5.57918C8.77021 4.59784 8.87925 2.92592 8.40675 2.16265L7.67982 1.10861C7.49809 0.854184 7.67982 0.527069 7.97059 0.527069H12.1141C12.5139 0.527069 12.841 0.854184 12.841 1.25399V6.52418C12.841 6.52418 13.0227 7.46918 14.0404 6.48784C15.0581 5.50649 16.1485 3.68918 17.0571 1.83553L17.4206 0.963223C17.5296 0.7088 17.7841 0.527069 18.0748 0.527069H20.7644C21.2733 0.527069 21.6367 1.03592 21.455 1.50842L21.1642 2.27168C21.1642 2.27168 20.1829 4.23438 19.1652 5.61553C18.1475 7.03303 17.9294 7.36015 18.0748 7.72361C18.2202 8.08707 20.8371 10.5223 21.4914 11.6853C21.6731 12.0125 21.8185 12.3032 21.9639 12.5576C22.2183 13.0301 21.8548 13.648 21.3096 13.648H18.2566C18.0021 13.648 17.7477 13.5026 17.6387 13.2846L17.3479 12.8121C17.3479 12.8121 15.4942 10.6313 14.3675 9.94072C13.2044 9.28649 13.2408 10.2315 13.2408 10.2315V12.1578C13.2408 12.9575 12.5866 13.6117 11.7869 13.6117H11.06C11.06 13.6117 7.06194 13.6117 3.86348 8.85034C1.35559 5.14303 0.519632 2.74418 0.228863 1.36303C0.15617 0.926876 0.483286 0.490723 0.955786 0.490723Z" fill="#5181B8"/>
</svg>
