<svg width="22" height="22" viewBox="0 0 22 22" fill="none" xmlns="http://www.w3.org/2000/svg">
<path d="M18.3752 3.54862C16.4205 1.58938 13.8176 0.511719 11.0512 0.511719C5.34127 0.511719 0.694963 5.15807 0.694963 10.8679C0.694963 12.6918 1.17083 14.4739 2.07584 16.046L0.606415 21.4107L6.09705 19.9692C7.6085 20.7948 9.31114 21.2288 11.0465 21.2288H11.0512C16.7565 21.2288 21.5053 16.5824 21.5053 10.8726C21.5053 8.10625 20.3298 5.50791 18.3752 3.54862Z" fill="#2CB742"/>
<path d="M11.0512 19.4842C9.50241 19.4842 7.98628 19.069 6.66609 18.2853L6.35356 18.0987L3.0974 18.9523L3.96512 15.7755L3.75985 15.449C2.89686 14.0775 2.44431 12.4961 2.44431 10.868C2.44431 6.12374 6.3069 2.26123 11.0558 2.26123C13.3556 2.26123 15.5154 3.15689 17.1389 4.78493C18.7623 6.41301 19.7606 8.57292 19.756 10.8727C19.756 15.6217 15.7953 19.4842 11.0512 19.4842Z" fill="#FBFBFB"/>
<path d="M15.7721 13.0369C15.5155 12.9064 14.2421 12.2811 14.0041 12.1973C13.7662 12.1086 13.5936 12.0667 13.421 12.3279C13.2484 12.5891 12.7539 13.1675 12.5999 13.3449C12.4507 13.5175 12.2967 13.5408 12.0402 13.4102C10.5194 12.6498 9.52114 12.0527 8.51817 10.3313C8.25225 9.87414 8.78413 9.90676 9.27853 8.91787C9.36258 8.74518 9.3206 8.59593 9.25518 8.46531C9.18994 8.3347 8.6721 7.06117 8.45752 6.54333C8.24762 6.03953 8.03304 6.10949 7.87439 6.10018C7.72514 6.09082 7.55245 6.09082 7.37994 6.09082C7.2073 6.09082 6.92743 6.15615 6.6895 6.41271C6.45162 6.67395 5.78448 7.2991 5.78448 8.57263C5.78448 9.84615 6.71277 11.0777 6.83875 11.2503C6.96932 11.4228 8.66278 14.0353 11.2611 15.1595C12.9032 15.8686 13.547 15.9292 14.368 15.8079C14.8671 15.7333 15.8982 15.1828 16.1127 14.5764C16.3273 13.97 16.3273 13.4522 16.2619 13.3449C16.2013 13.2282 16.0286 13.1629 15.7721 13.0369Z" fill="#2CB742"/>
</svg>
