<svg width="7" height="5" viewBox="0 0 7 5" fill="none" xmlns="http://www.w3.org/2000/svg">
<path d="M3.77314 4.44457L6.88817 1.32948C6.96028 1.25743 7 1.16125 7 1.0587C7 0.956148 6.96028 0.85997 6.88817 0.787922L6.65882 0.558517C6.50938 0.409242 6.26649 0.409242 6.11727 0.558517L3.50145 3.17433L0.882733 0.555615C0.810628 0.483567 0.714507 0.443787 0.612011 0.443787C0.509402 0.443787 0.413281 0.483567 0.341119 0.555615L0.111828 0.78502C0.0397234 0.857125 0 0.953246 0 1.0558C0 1.15835 0.0397234 1.25453 0.111828 1.32658L3.22971 4.44457C3.30204 4.51679 3.39861 4.55645 3.50128 4.55622C3.60434 4.55645 3.70086 4.51679 3.77314 4.44457Z" fill="black"/>
</svg>
