<svg width="47" height="47" viewBox="0 0 47 47" fill="none" xmlns="http://www.w3.org/2000/svg">
<circle cx="23" cy="23" r="22" transform="matrix(-1 0 0 1 46.3281 0.464844)" stroke="#D2D2D2" stroke-width="2"/>
<path d="M1.32812 23.4648C1.32812 35.6151 11.1779 45.4648 23.3281 45.4648C35.4784 45.4648 45.3281 35.6151 45.3281 23.4648C45.3281 11.3146 35.4784 1.46484 23.3281 1.46484" stroke="#252525" stroke-width="2"/>
<g clip-path="url(#clip0_36_421)">
<path d="M15.0987 24.5585H30.5576C30.7933 24.5585 31.0064 24.4136 31.0967 24.1922C31.1869 23.9701 31.1371 23.7148 30.9702 23.545L23.9705 16.42C23.7425 16.1878 23.3738 16.1878 23.1458 16.42C22.9178 16.6521 22.9178 17.0274 23.1458 17.2595L29.1492 23.371H15.0993C14.7763 23.371 14.5156 23.637 14.5156 23.9647C14.5156 24.2925 14.7763 24.5585 15.0987 24.5585Z" fill="#252525"/>
<path d="M23.5572 31.6835C23.7063 31.6835 23.8559 31.6253 23.9699 31.5095L28.6368 26.7595C28.8648 26.5274 28.8648 26.1521 28.6368 25.92C28.4088 25.6878 28.0401 25.6878 27.8121 25.92L23.1452 30.67C22.9172 30.9021 22.9172 31.2774 23.1452 31.5095C23.2586 31.6253 23.4082 31.6835 23.5572 31.6835Z" fill="#252525"/>
</g>
<defs>
<clipPath id="clip0_36_421">
<rect width="19" height="19" fill="white" transform="matrix(-1 0 0 1 32.3281 14.4648)"/>
</clipPath>
</defs>
</svg>
