<svg width="12" height="11" viewBox="0 0 12 11" fill="none" xmlns="http://www.w3.org/2000/svg">
<path d="M1.59568 10.7812H10.299C10.692 10.7812 11.0688 10.6363 11.3467 10.3783C11.6246 10.1203 11.7807 9.77031 11.7807 9.40542V2.13625C11.7807 1.77136 11.6246 1.42141 11.3467 1.16339C11.0688 0.90537 10.692 0.760417 10.299 0.760417H9.13235V0.625C9.13235 0.517256 9.08625 0.413924 9.00421 0.337738C8.92216 0.261551 8.81088 0.21875 8.69485 0.21875C8.57881 0.21875 8.46754 0.261551 8.38549 0.337738C8.30344 0.413924 8.25735 0.517256 8.25735 0.625V0.760417H3.32235V0.625C3.32235 0.517256 3.27625 0.413924 3.19421 0.337738C3.11216 0.261551 3.00088 0.21875 2.88485 0.21875C2.76882 0.21875 2.65754 0.261551 2.57549 0.337738C2.49344 0.413924 2.44735 0.517256 2.44735 0.625V0.760417H1.59568C1.20272 0.760417 0.82585 0.90537 0.547984 1.16339C0.270117 1.42141 0.114014 1.77136 0.114014 2.13625V9.40542C0.114014 9.77031 0.270117 10.1203 0.547984 10.3783C0.82585 10.6363 1.20272 10.7812 1.59568 10.7812ZM10.299 9.96875H1.59568C1.44097 9.96875 1.2926 9.91168 1.1832 9.8101C1.07381 9.70852 1.01235 9.57074 1.01235 9.42708V4.23792H10.929V9.40542C10.9326 9.48215 10.9186 9.55871 10.8878 9.63002C10.8571 9.70133 10.8104 9.76576 10.7509 9.81903C10.6913 9.87231 10.6202 9.91321 10.5423 9.93902C10.4644 9.96483 10.3815 9.97497 10.299 9.96875ZM1.59568 1.57292H2.44735V1.70833C2.44735 1.81608 2.49344 1.91941 2.57549 1.9956C2.65754 2.07178 2.76882 2.11458 2.88485 2.11458C3.00088 2.11458 3.11216 2.07178 3.19421 1.9956C3.27625 1.91941 3.32235 1.81608 3.32235 1.70833V1.57292H8.28068V1.70833C8.28068 1.81608 8.32677 1.91941 8.40882 1.9956C8.49087 2.07178 8.60215 2.11458 8.71818 2.11458C8.83421 2.11458 8.94549 2.07178 9.02754 1.9956C9.10959 1.91941 9.15568 1.81608 9.15568 1.70833V1.57292H10.3223C10.4771 1.57292 10.6254 1.62999 10.7348 1.73157C10.8442 1.83315 10.9057 1.97092 10.9057 2.11458V3.42542H0.989014V2.13625C0.985722 2.06145 0.999161 1.98684 1.02848 1.91711C1.05781 1.84738 1.10238 1.78405 1.15938 1.73112C1.21639 1.67818 1.28459 1.6368 1.35968 1.60957C1.43477 1.58234 1.51513 1.56986 1.59568 1.57292Z" fill="#252525"/>
</svg>
