<svg width="7" height="5" viewBox="0 0 7 5" fill="none" xmlns="http://www.w3.org/2000/svg">
<path d="M3.77314 4.44451L6.88817 1.32942C6.96028 1.25737 7 1.16119 7 1.05864C7 0.956087 6.96028 0.859909 6.88817 0.787861L6.65882 0.558456C6.50938 0.409181 6.26649 0.409181 6.11727 0.558456L3.50145 3.17427L0.882733 0.555554C0.810628 0.483506 0.714507 0.443726 0.612011 0.443726C0.509402 0.443726 0.413281 0.483506 0.341119 0.555554L0.111828 0.784959C0.0397234 0.857064 0 0.953185 0 1.05574C0 1.15829 0.0397234 1.25447 0.111828 1.32652L3.22971 4.44451C3.30204 4.51673 3.39861 4.55639 3.50128 4.55616C3.60434 4.55639 3.70086 4.51673 3.77314 4.44451Z" fill="black"/>
</svg>
